<mxfile host="app.diagrams.net" agent="Mozilla/5.0 (Windows NT 10.0; Win64; x64) AppleWebKit/537.36 (KHTML, like Gecko) Chrome/129.0.0.0 Safari/537.36" version="24.7.16">
  <diagram name="Сторінка-1" id="Otv6hTUK-ARk4_QEhoQc">
    <mxGraphModel dx="1050" dy="522" grid="1" gridSize="10" guides="1" tooltips="1" connect="1" arrows="1" fold="1" page="1" pageScale="1" pageWidth="827" pageHeight="1169" math="0" shadow="0">
      <root>
        <mxCell id="0" />
        <mxCell id="1" parent="0" />
        <mxCell id="R5bcFTmNbUVAByZ7REOG-1" value="Початок" style="rounded=1;whiteSpace=wrap;html=1;" parent="1" vertex="1">
          <mxGeometry x="354" y="40" width="120" height="60" as="geometry" />
        </mxCell>
        <mxCell id="R5bcFTmNbUVAByZ7REOG-5" style="edgeStyle=orthogonalEdgeStyle;rounded=0;orthogonalLoop=1;jettySize=auto;html=1;exitX=0.5;exitY=1;exitDx=0;exitDy=0;entryX=0.5;entryY=0;entryDx=0;entryDy=0;" parent="1" source="R5bcFTmNbUVAByZ7REOG-2" target="R5bcFTmNbUVAByZ7REOG-4" edge="1">
          <mxGeometry relative="1" as="geometry" />
        </mxCell>
        <mxCell id="R5bcFTmNbUVAByZ7REOG-2" value="Ввід&lt;br&gt;(a, b, h, d)" style="shape=parallelogram;perimeter=parallelogramPerimeter;whiteSpace=wrap;html=1;fixedSize=1;" parent="1" vertex="1">
          <mxGeometry x="354" y="120" width="120" height="60" as="geometry" />
        </mxCell>
        <mxCell id="R5bcFTmNbUVAByZ7REOG-3" value="" style="edgeStyle=none;orthogonalLoop=1;jettySize=auto;html=1;rounded=0;entryX=0.5;entryY=0;entryDx=0;entryDy=0;exitX=0.5;exitY=1;exitDx=0;exitDy=0;" parent="1" source="R5bcFTmNbUVAByZ7REOG-1" target="R5bcFTmNbUVAByZ7REOG-2" edge="1">
          <mxGeometry width="100" relative="1" as="geometry">
            <mxPoint x="280" y="240" as="sourcePoint" />
            <mxPoint x="380" y="240" as="targetPoint" />
            <Array as="points" />
          </mxGeometry>
        </mxCell>
        <mxCell id="R5bcFTmNbUVAByZ7REOG-7" style="edgeStyle=orthogonalEdgeStyle;rounded=0;orthogonalLoop=1;jettySize=auto;html=1;exitX=0.5;exitY=1;exitDx=0;exitDy=0;entryX=0.5;entryY=0;entryDx=0;entryDy=0;" parent="1" source="R5bcFTmNbUVAByZ7REOG-4" target="R5bcFTmNbUVAByZ7REOG-6" edge="1">
          <mxGeometry relative="1" as="geometry" />
        </mxCell>
        <mxCell id="R5bcFTmNbUVAByZ7REOG-4" value="Обчислення результату за допомогою функції tb" style="rounded=0;whiteSpace=wrap;html=1;" parent="1" vertex="1">
          <mxGeometry x="354" y="200" width="120" height="60" as="geometry" />
        </mxCell>
        <mxCell id="R5bcFTmNbUVAByZ7REOG-9" style="edgeStyle=orthogonalEdgeStyle;rounded=0;orthogonalLoop=1;jettySize=auto;html=1;exitX=0.5;exitY=1;exitDx=0;exitDy=0;entryX=0.5;entryY=0;entryDx=0;entryDy=0;" parent="1" source="R5bcFTmNbUVAByZ7REOG-6" target="R5bcFTmNbUVAByZ7REOG-8" edge="1">
          <mxGeometry relative="1" as="geometry" />
        </mxCell>
        <mxCell id="R5bcFTmNbUVAByZ7REOG-6" value="Ініціалізація x = a&lt;br&gt;і пустого списку res" style="rounded=0;whiteSpace=wrap;html=1;" parent="1" vertex="1">
          <mxGeometry x="354" y="280" width="120" height="60" as="geometry" />
        </mxCell>
        <mxCell id="R5bcFTmNbUVAByZ7REOG-11" style="edgeStyle=orthogonalEdgeStyle;rounded=0;orthogonalLoop=1;jettySize=auto;html=1;exitX=0.5;exitY=1;exitDx=0;exitDy=0;entryX=0.5;entryY=0;entryDx=0;entryDy=0;" parent="1" source="R5bcFTmNbUVAByZ7REOG-8" target="R5bcFTmNbUVAByZ7REOG-10" edge="1">
          <mxGeometry relative="1" as="geometry" />
        </mxCell>
        <mxCell id="R5bcFTmNbUVAByZ7REOG-40" style="edgeStyle=orthogonalEdgeStyle;rounded=0;orthogonalLoop=1;jettySize=auto;html=1;exitX=0;exitY=0.5;exitDx=0;exitDy=0;entryX=0;entryY=0.5;entryDx=0;entryDy=0;" parent="1" source="R5bcFTmNbUVAByZ7REOG-8" target="R5bcFTmNbUVAByZ7REOG-33" edge="1">
          <mxGeometry relative="1" as="geometry">
            <Array as="points">
              <mxPoint x="290" y="400" />
              <mxPoint x="290" y="1110" />
            </Array>
          </mxGeometry>
        </mxCell>
        <mxCell id="R5bcFTmNbUVAByZ7REOG-8" value="x &amp;lt;= b" style="rhombus;whiteSpace=wrap;html=1;" parent="1" vertex="1">
          <mxGeometry x="336" y="360" width="156" height="80" as="geometry" />
        </mxCell>
        <mxCell id="R5bcFTmNbUVAByZ7REOG-13" style="edgeStyle=orthogonalEdgeStyle;rounded=0;orthogonalLoop=1;jettySize=auto;html=1;exitX=0.5;exitY=1;exitDx=0;exitDy=0;entryX=0.5;entryY=0;entryDx=0;entryDy=0;" parent="1" source="R5bcFTmNbUVAByZ7REOG-10" target="R5bcFTmNbUVAByZ7REOG-12" edge="1">
          <mxGeometry relative="1" as="geometry" />
        </mxCell>
        <mxCell id="R5bcFTmNbUVAByZ7REOG-10" value="Обчислення суми для значення x" style="whiteSpace=wrap;html=1;" parent="1" vertex="1">
          <mxGeometry x="354" y="460" width="120" height="60" as="geometry" />
        </mxCell>
        <mxCell id="R5bcFTmNbUVAByZ7REOG-15" style="edgeStyle=orthogonalEdgeStyle;rounded=0;orthogonalLoop=1;jettySize=auto;html=1;exitX=0.5;exitY=1;exitDx=0;exitDy=0;entryX=0.5;entryY=0;entryDx=0;entryDy=0;" parent="1" source="R5bcFTmNbUVAByZ7REOG-12" target="R5bcFTmNbUVAByZ7REOG-14" edge="1">
          <mxGeometry relative="1" as="geometry" />
        </mxCell>
        <mxCell id="R5bcFTmNbUVAByZ7REOG-12" value="Ініціфлізація n = 1, term = (x-1)^n / (n*x^n),&lt;br&gt;sum = term" style="whiteSpace=wrap;html=1;" parent="1" vertex="1">
          <mxGeometry x="354" y="550" width="120" height="60" as="geometry" />
        </mxCell>
        <mxCell id="R5bcFTmNbUVAByZ7REOG-17" style="edgeStyle=orthogonalEdgeStyle;rounded=0;orthogonalLoop=1;jettySize=auto;html=1;exitX=0.5;exitY=1;exitDx=0;exitDy=0;entryX=0.5;entryY=0;entryDx=0;entryDy=0;" parent="1" source="R5bcFTmNbUVAByZ7REOG-14" target="R5bcFTmNbUVAByZ7REOG-16" edge="1">
          <mxGeometry relative="1" as="geometry" />
        </mxCell>
        <mxCell id="R5bcFTmNbUVAByZ7REOG-24" style="edgeStyle=orthogonalEdgeStyle;rounded=0;orthogonalLoop=1;jettySize=auto;html=1;exitX=0;exitY=0.5;exitDx=0;exitDy=0;entryX=0;entryY=0.5;entryDx=0;entryDy=0;" parent="1" source="R5bcFTmNbUVAByZ7REOG-14" target="R5bcFTmNbUVAByZ7REOG-20" edge="1">
          <mxGeometry relative="1" as="geometry" />
        </mxCell>
        <mxCell id="R5bcFTmNbUVAByZ7REOG-14" value="abs(term) &amp;gt; d" style="rhombus;whiteSpace=wrap;html=1;" parent="1" vertex="1">
          <mxGeometry x="332" y="630" width="164" height="80" as="geometry" />
        </mxCell>
        <mxCell id="R5bcFTmNbUVAByZ7REOG-19" style="edgeStyle=orthogonalEdgeStyle;rounded=0;orthogonalLoop=1;jettySize=auto;html=1;exitX=1;exitY=0.5;exitDx=0;exitDy=0;entryX=1;entryY=0.5;entryDx=0;entryDy=0;" parent="1" target="R5bcFTmNbUVAByZ7REOG-14" edge="1">
          <mxGeometry relative="1" as="geometry">
            <mxPoint x="500" y="670" as="targetPoint" />
            <mxPoint x="472" y="770" as="sourcePoint" />
            <Array as="points">
              <mxPoint x="472" y="771" />
              <mxPoint x="531" y="771" />
              <mxPoint x="531" y="670" />
            </Array>
          </mxGeometry>
        </mxCell>
        <mxCell id="R5bcFTmNbUVAByZ7REOG-16" value="Збільшення n на 1, обчислення нового доданка, додавання його до суми" style="whiteSpace=wrap;html=1;" parent="1" vertex="1">
          <mxGeometry x="354" y="740" width="120" height="60" as="geometry" />
        </mxCell>
        <mxCell id="R5bcFTmNbUVAByZ7REOG-26" style="edgeStyle=orthogonalEdgeStyle;rounded=0;orthogonalLoop=1;jettySize=auto;html=1;exitX=0.5;exitY=1;exitDx=0;exitDy=0;" parent="1" source="R5bcFTmNbUVAByZ7REOG-20" target="R5bcFTmNbUVAByZ7REOG-25" edge="1">
          <mxGeometry relative="1" as="geometry" />
        </mxCell>
        <mxCell id="R5bcFTmNbUVAByZ7REOG-20" value="Повернення обчисленої суми з функції sum" style="rounded=0;whiteSpace=wrap;html=1;" parent="1" vertex="1">
          <mxGeometry x="354" y="840" width="120" height="60" as="geometry" />
        </mxCell>
        <mxCell id="R5bcFTmNbUVAByZ7REOG-21" value="+" style="text;html=1;align=center;verticalAlign=middle;resizable=0;points=[];autosize=1;strokeColor=none;fillColor=none;" parent="1" vertex="1">
          <mxGeometry x="420" y="710" width="30" height="30" as="geometry" />
        </mxCell>
        <mxCell id="R5bcFTmNbUVAByZ7REOG-23" value="-" style="text;html=1;align=center;verticalAlign=middle;resizable=0;points=[];autosize=1;strokeColor=none;fillColor=none;" parent="1" vertex="1">
          <mxGeometry x="310" y="670" width="30" height="30" as="geometry" />
        </mxCell>
        <mxCell id="R5bcFTmNbUVAByZ7REOG-28" style="edgeStyle=orthogonalEdgeStyle;rounded=0;orthogonalLoop=1;jettySize=auto;html=1;exitX=0.5;exitY=1;exitDx=0;exitDy=0;entryX=0.5;entryY=0;entryDx=0;entryDy=0;" parent="1" source="R5bcFTmNbUVAByZ7REOG-25" target="R5bcFTmNbUVAByZ7REOG-27" edge="1">
          <mxGeometry relative="1" as="geometry" />
        </mxCell>
        <mxCell id="R5bcFTmNbUVAByZ7REOG-25" value="Додаваня результату (x, y) до списку res" style="whiteSpace=wrap;html=1;" parent="1" vertex="1">
          <mxGeometry x="354" y="920" width="120" height="60" as="geometry" />
        </mxCell>
        <mxCell id="R5bcFTmNbUVAByZ7REOG-29" style="edgeStyle=orthogonalEdgeStyle;rounded=0;orthogonalLoop=1;jettySize=auto;html=1;exitX=1;exitY=0.5;exitDx=0;exitDy=0;entryX=1;entryY=0.5;entryDx=0;entryDy=0;" parent="1" source="R5bcFTmNbUVAByZ7REOG-27" target="R5bcFTmNbUVAByZ7REOG-8" edge="1">
          <mxGeometry relative="1" as="geometry">
            <Array as="points">
              <mxPoint x="570" y="1030" />
              <mxPoint x="570" y="400" />
            </Array>
          </mxGeometry>
        </mxCell>
        <mxCell id="R5bcFTmNbUVAByZ7REOG-34" style="edgeStyle=orthogonalEdgeStyle;rounded=0;orthogonalLoop=1;jettySize=auto;html=1;exitX=0.5;exitY=1;exitDx=0;exitDy=0;entryX=0.5;entryY=0;entryDx=0;entryDy=0;" parent="1" source="R5bcFTmNbUVAByZ7REOG-27" target="R5bcFTmNbUVAByZ7REOG-33" edge="1">
          <mxGeometry relative="1" as="geometry" />
        </mxCell>
        <mxCell id="R5bcFTmNbUVAByZ7REOG-27" value="Збільшити x на h" style="rounded=0;whiteSpace=wrap;html=1;" parent="1" vertex="1">
          <mxGeometry x="354" y="1000" width="120" height="60" as="geometry" />
        </mxCell>
        <mxCell id="R5bcFTmNbUVAByZ7REOG-30" value="+" style="text;html=1;align=center;verticalAlign=middle;resizable=0;points=[];autosize=1;strokeColor=none;fillColor=none;" parent="1" vertex="1">
          <mxGeometry x="414" y="430" width="30" height="30" as="geometry" />
        </mxCell>
        <mxCell id="R5bcFTmNbUVAByZ7REOG-32" value="-" style="text;html=1;align=center;verticalAlign=middle;resizable=0;points=[];autosize=1;strokeColor=none;fillColor=none;" parent="1" vertex="1">
          <mxGeometry x="310" y="350" width="30" height="30" as="geometry" />
        </mxCell>
        <mxCell id="R5bcFTmNbUVAByZ7REOG-38" style="edgeStyle=orthogonalEdgeStyle;rounded=0;orthogonalLoop=1;jettySize=auto;html=1;exitX=1;exitY=0.5;exitDx=0;exitDy=0;" parent="1" source="R5bcFTmNbUVAByZ7REOG-33" target="R5bcFTmNbUVAByZ7REOG-35" edge="1">
          <mxGeometry relative="1" as="geometry" />
        </mxCell>
        <mxCell id="R5bcFTmNbUVAByZ7REOG-33" value="Повернення результату в список res" style="rounded=0;whiteSpace=wrap;html=1;" parent="1" vertex="1">
          <mxGeometry x="354" y="1080" width="120" height="60" as="geometry" />
        </mxCell>
        <mxCell id="R5bcFTmNbUVAByZ7REOG-39" style="edgeStyle=orthogonalEdgeStyle;rounded=0;orthogonalLoop=1;jettySize=auto;html=1;exitX=1;exitY=0.5;exitDx=0;exitDy=0;entryX=0;entryY=0.5;entryDx=0;entryDy=0;" parent="1" source="R5bcFTmNbUVAByZ7REOG-35" target="R5bcFTmNbUVAByZ7REOG-37" edge="1">
          <mxGeometry relative="1" as="geometry" />
        </mxCell>
        <mxCell id="R5bcFTmNbUVAByZ7REOG-35" value="Виведення &lt;br&gt;значень&lt;br&gt;(x, y)" style="shape=parallelogram;perimeter=parallelogramPerimeter;whiteSpace=wrap;html=1;fixedSize=1;" parent="1" vertex="1">
          <mxGeometry x="500" y="1080" width="120" height="60" as="geometry" />
        </mxCell>
        <mxCell id="R5bcFTmNbUVAByZ7REOG-37" value="Завершення виконання програми" style="ellipse;whiteSpace=wrap;html=1;" parent="1" vertex="1">
          <mxGeometry x="640" y="1070" width="120" height="80" as="geometry" />
        </mxCell>
      </root>
    </mxGraphModel>
  </diagram>
</mxfile>
